{
  "accessors": [
    {
      "bufferView": 2,
      "componentType": 5126,
      "count": 7012,
      "max": [
        0.14005398750305176,
        0.9942517280578613,
        1.0732779502868652
      ],
      "min": [
        -0.7008432149887085,
        -1.0176618099212646,
        -0.43807005882263184
      ],
      "type": "VEC3"
    },
    {
      "bufferView": 2,
      "byteOffset": 84144,
      "componentType": 5126,
      "count": 7012,
      "max": [
        1.0,
        1.0,
        1.0
      ],
      "min": [
        -1.0,
        -1.0,
        -1.0
      ],
      "type": "VEC3"
    },
    {
      "bufferView": 1,
      "componentType": 5126,
      "count": 7012,
      "max": [
        0.8997235298156738,
        1.000074863433838
      ],
      "min": [
        0.0,
        0.0
      ],
      "type": "VEC2"
    },
    {
      "bufferView": 0,
      "componentType": 5125,
      "count": 14508,
      "type": "SCALAR"
    },
    {
      "bufferView": 2,
      "byteOffset": 168288,
      "componentType": 5126,
      "count": 30216,
      "max": [
        0.15770621597766876,
        0.999061644077301,
        1.3870028257369995
      ],
      "min": [
        -0.7184953689575195,
        -1.0592966079711914,
        -0.44499027729034424
      ],
      "type": "VEC3"
    },
    {
      "bufferView": 2,
      "byteOffset": 530880,
      "componentType": 5126,
      "count": 30216,
      "max": [
        1.0,
        1.0,
        1.0
      ],
      "min": [
        -1.0,
        -1.0,
        -1.0
      ],
      "type": "VEC3"
    },
    {
      "bufferView": 1,
      "byteOffset": 56096,
      "componentType": 5126,
      "count": 30216,
      "max": [
        1.0,
        1.0
      ],
      "min": [
        -1.862645149230957e-07,
        0.0
      ],
      "type": "VEC2"
    },
    {
      "bufferView": 0,
      "byteOffset": 58032,
      "componentType": 5125,
      "count": 68664,
      "type": "SCALAR"
    },
    {
      "bufferView": 2,
      "byteOffset": 893472,
      "componentType": 5126,
      "count": 140,
      "max": [
        0.048819076269865036,
        0.7357204556465149,
        1.3806651830673218
      ],
      "min": [
        -0.6096082925796509,
        -0.9669502973556519,
        0.492678165435791
      ],
      "type": "VEC3"
    },
    {
      "bufferView": 2,
      "byteOffset": 895152,
      "componentType": 5126,
      "count": 140,
      "max": [
        1.0,
        0.9755070209503174,
        0.9755110740661621
      ],
      "min": [
        -1.0,
        -0.9755070209503174,
        -0.21996891498565674
      ],
      "type": "VEC3"
    },
    {
      "bufferView": 1,
      "byteOffset": 297824,
      "componentType": 5126,
      "count": 140,
      "max": [
        0.8050457239151001,
        0.9950500130653381
      ],
      "min": [
        0.3741077184677124,
        0.0
      ],
      "type": "VEC2"
    },
    {
      "bufferView": 0,
      "byteOffset": 332688,
      "componentType": 5125,
      "count": 210,
      "type": "SCALAR"
    },
    {
      "bufferView": 2,
      "byteOffset": 896832,
      "componentType": 5126,
      "count": 228,
      "max": [
        -0.0620233416557312,
        0.6813865900039673,
        0.8814368844032288
      ],
      "min": [
        -0.49876588582992554,
        0.41208502650260925,
        -0.39224523305892944
      ],
      "type": "VEC3"
    },
    {
      "bufferView": 2,
      "byteOffset": 899568,
      "componentType": 5126,
      "count": 228,
      "max": [
        1.0,
        0.2199508249759674,
        0.9755110740661621
      ],
      "min": [
        -1.0,
        -0.5466607213020325,
        -0.9755110740661621
      ],
      "type": "VEC3"
    },
    {
      "bufferView": 1,
      "byteOffset": 298944,
      "componentType": 5126,
      "count": 228,
      "max": [
        1.0,
        0.9934602379798889
      ],
      "min": [
        -1.862645149230957e-07,
        0.7319697141647339
      ],
      "type": "VEC2"
    },
    {
      "bufferView": 0,
      "byteOffset": 333528,
      "componentType": 5125,
      "count": 618,
      "type": "SCALAR"
    }
  ],
  "asset": {
    "extras": {
      "author": "taktelon (https://sketchfab.com/taktelon)",
      "license": "CC-BY-4.0 (http://creativecommons.org/licenses/by/4.0/)",
      "source": "https://sketchfab.com/3d-models/robot-04-d8d9528d63da458ab6019161c126c532",
      "title": "Robot_04"
    },
    "generator": "Sketchfab-12.67.0",
    "version": "2.0"
  },
  "bufferViews": [
    {
      "buffer": 0,
      "byteLength": 336000,
      "name": "floatBufferViews",
      "target": 34963
    },
    {
      "buffer": 0,
      "byteLength": 300768,
      "byteOffset": 336000,
      "byteStride": 8,
      "name": "floatBufferViews",
      "target": 34962
    },
    {
      "buffer": 0,
      "byteLength": 902304,
      "byteOffset": 636768,
      "byteStride": 12,
      "name": "floatBufferViews",
      "target": 34962
    }
  ],
  "buffers": [
    {
      "byteLength": 1539072,
      "uri": "scene.bin"
    }
  ],
  "materials": [
    {
      "doubleSided": true,
      "name": "Material.005",
      "pbrMetallicRoughness": {
        "baseColorFactor": [
          0.0668043,
          0.0540194,
          0.0275516,
          1.0
        ],
        "metallicFactor": 0.0,
        "roughnessFactor": 0.4
      }
    },
    {
      "doubleSided": true,
      "name": "Frame_Metal",
      "pbrMetallicRoughness": {
        "baseColorFactor": [
          0.0146696,
          0.0146696,
          0.0146696,
          1.0
        ],
        "roughnessFactor": 0.169014
      }
    },
    {
      "doubleSided": true,
      "emissiveFactor": [
        1.0,
        1.0,
        1.0
      ],
      "name": "light"
    },
    {
      "doubleSided": true,
      "emissiveFactor": [
        1.0,
        0.8406754199663474,
        0.2344320069453333
      ],
      "name": "Material.003"
    }
  ],
  "meshes": [
    {
      "name": "Object_0",
      "primitives": [
        {
          "attributes": {
            "NORMAL": 1,
            "POSITION": 0,
            "TEXCOORD_0": 2
          },
          "indices": 3,
          "material": 0,
          "mode": 4
        }
      ]
    },
    {
      "name": "Object_1",
      "primitives": [
        {
          "attributes": {
            "NORMAL": 5,
            "POSITION": 4,
            "TEXCOORD_0": 6
          },
          "indices": 7,
          "material": 1,
          "mode": 4
        }
      ]
    },
    {
      "name": "Object_2",
      "primitives": [
        {
          "attributes": {
            "NORMAL": 9,
            "POSITION": 8,
            "TEXCOORD_0": 10
          },
          "indices": 11,
          "material": 2,
          "mode": 4
        }
      ]
    },
    {
      "name": "Object_3",
      "primitives": [
        {
          "attributes": {
            "NORMAL": 13,
            "POSITION": 12,
            "TEXCOORD_0": 14
          },
          "indices": 15,
          "material": 3,
          "mode": 4
        }
      ]
    }
  ],
  "nodes": [
    {
      "children": [
        1
      ],
      "matrix": [
        1.0,
        0.0,
        0.0,
        0.0,
        0.0,
        2.220446049250313e-16,
        -1.0,
        0.0,
        0.0,
        1.0,
        2.220446049250313e-16,
        0.0,
        0.0,
        0.0,
        0.0,
        1.0
      ],
      "name": "Sketchfab_model"
    },
    {
      "children": [
        2
      ],
      "name": "root"
    },
    {
      "children": [
        3
      ],
      "matrix": [
        1.0,
        0.0,
        0.0,
        0.0,
        0.0,
        2.220446049250313e-16,
        1.0,
        0.0,
        0.0,
        -1.0,
        2.220446049250313e-16,
        0.0,
        0.0,
        0.0,
        0.0,
        1.0
      ],
      "name": "GLTF_SceneRootNode"
    },
    {
      "children": [
        4,
        5,
        6,
        7
      ],
      "matrix": [
        1.0,
        0.0,
        -0.0,
        0.0,
        0.0,
        0.9755069396421414,
        -0.21996865847211844,
        0.0,
        0.0,
        0.21996865847211844,
        0.9755069396421414,
        0.0,
        0.28039461374282837,
        0.884939968585968,
        -0.12604926526546478,
        1.0
      ],
      "name": "Robot_05_0"
    },
    {
      "mesh": 0,
      "name": "Object_4"
    },
    {
      "mesh": 1,
      "name": "Object_5"
    },
    {
      "mesh": 2,
      "name": "Object_6"
    },
    {
      "mesh": 3,
      "name": "Object_7"
    }
  ],
  "scene": 0,
  "scenes": [
    {
      "name": "Sketchfab_Scene",
      "nodes": [
        0
      ]
    }
  ]
}
