{
  "accessors": [
    {
      "bufferView": 2,
      "componentType": 5126,
      "count": 6839,
      "max": [
        59.30439376831055,
        34.65032958984375,
        113.63426208496094
      ],
      "min": [
        -59.30427932739258,
        -34.65031433105469,
        -3.240601062774658
      ],
      "type": "VEC3"
    },
    {
      "bufferView": 2,
      "byteOffset": 82068,
      "componentType": 5126,
      "count": 6839,
      "max": [
        0.999401330947876,
        1.0,
        1.0
      ],
      "min": [
        -0.999401330947876,
        -1.0,
        -1.0
      ],
      "type": "VEC3"
    },
    {
      "bufferView": 3,
      "componentType": 5126,
      "count": 6839,
      "max": [
        1.0,
        0.9994495511054993,
        1.0,
        1.0
      ],
      "min": [
        -1.0,
        -0.9998002648353577,
        -1.0,
        -1.0
      ],
      "type": "VEC4"
    },
    {
      "bufferView": 1,
      "componentType": 5126,
      "count": 6839,
      "max": [
        0.9965819716453552,
        0.9957699775695801
      ],
      "min": [
        0.00279999990016222,
        0.0029299999587237835
      ],
      "type": "VEC2"
    },
    {
      "bufferView": 0,
      "componentType": 5125,
      "count": 35442,
      "type": "SCALAR"
    },
    {
      "bufferView": 2,
      "byteOffset": 164136,
      "componentType": 5126,
      "count": 876,
      "max": [
        16.261362075805664,
        -16.64644432067871,
        81.51451110839844
      ],
      "min": [
        -16.260709762573242,
        -31.242725372314453,
        59.178253173828125
      ],
      "type": "VEC3"
    },
    {
      "bufferView": 2,
      "byteOffset": 174648,
      "componentType": 5126,
      "count": 876,
      "max": [
        0.9997941851615906,
        0.9986323714256287,
        0.9958630800247192
      ],
      "min": [
        -0.9997941851615906,
        -0.9999637603759766,
        -0.9965007305145264
      ],
      "type": "VEC3"
    },
    {
      "bufferView": 3,
      "byteOffset": 109424,
      "componentType": 5126,
      "count": 876,
      "max": [
        0.9995712041854858,
        0.9890084266662598,
        0.863876461982727,
        1.0
      ],
      "min": [
        -0.9999649524688721,
        -0.989007294178009,
        -0.8638989329338074,
        1.0
      ],
      "type": "VEC4"
    },
    {
      "bufferView": 1,
      "byteOffset": 54712,
      "componentType": 5126,
      "count": 876,
      "max": [
        0.9458010196685791,
        0.9903259873390198
      ],
      "min": [
        0.08129899948835373,
        0.008301000110805035
      ],
      "type": "VEC2"
    },
    {
      "bufferView": 0,
      "byteOffset": 141768,
      "componentType": 5125,
      "count": 4608,
      "type": "SCALAR"
    }
  ],
  "asset": {
    "extras": {
      "author": "SMF Features Developed From Cheryl Hill (https://sketchfab.com/cherylhill28)",
      "license": "CC-BY-4.0 (http://creativecommons.org/licenses/by/4.0/)",
      "source": "https://sketchfab.com/3d-models/the-cosmic-shake-patrick-balloon-55e205dfdb1a42e2b600b15bab51f9be",
      "title": "The Cosmic Shake - Patrick Balloon"
    },
    "generator": "Sketchfab-16.65.0",
    "version": "2.0"
  },
  "bufferViews": [
    {
      "buffer": 0,
      "byteLength": 160200,
      "name": "floatBufferViews",
      "target": 34963
    },
    {
      "buffer": 0,
      "byteLength": 61720,
      "byteOffset": 160200,
      "byteStride": 8,
      "name": "floatBufferViews",
      "target": 34962
    },
    {
      "buffer": 0,
      "byteLength": 185160,
      "byteOffset": 221920,
      "byteStride": 12,
      "name": "floatBufferViews",
      "target": 34962
    },
    {
      "buffer": 0,
      "byteLength": 123440,
      "byteOffset": 407080,
      "byteStride": 16,
      "name": "floatBufferViews",
      "target": 34962
    }
  ],
  "buffers": [
    {
      "byteLength": 530520,
      "uri": "scene.bin"
    }
  ],
  "extensionsRequired": [
    "KHR_materials_pbrSpecularGlossiness"
  ],
  "extensionsUsed": [
    "KHR_materials_pbrSpecularGlossiness"
  ],
  "images": [
    {
      "uri": "textures/M_Patrick_Default_diffuse.png"
    },
    {
      "uri": "textures/M_Patrick_Default_specularGlossiness.png"
    },
    {
      "uri": "textures/M_Patrick_Default_normal.png"
    },
    {
      "uri": "textures/M_Patrick_Default_Eye_diffuse.png"
    },
    {
      "uri": "textures/M_Patrick_Default_Eye_specularGlossiness.png"
    }
  ],
  "materials": [
    {
      "doubleSided": true,
      "extensions": {
        "KHR_materials_pbrSpecularGlossiness": {
          "diffuseFactor": [
            1.0,
            1.0,
            1.0,
            1.0
          ],
          "diffuseTexture": {
            "index": 0
          },
          "glossinessFactor": 1.0,
          "specularFactor": [
            0.0,
            0.0,
            0.0
          ],
          "specularGlossinessTexture": {
            "index": 1
          }
        }
      },
      "name": "M_Patrick_Default",
      "normalTexture": {
        "index": 2
      }
    },
    {
      "doubleSided": true,
      "extensions": {
        "KHR_materials_pbrSpecularGlossiness": {
          "diffuseFactor": [
            1.0,
            1.0,
            1.0,
            1.0
          ],
          "diffuseTexture": {
            "index": 3
          },
          "glossinessFactor": 1.0,
          "specularFactor": [
            1.0,
            1.0,
            1.0
          ],
          "specularGlossinessTexture": {
            "index": 4
          }
        }
      },
      "name": "M_Patrick_Default_Eye",
      "normalTexture": {
        "index": 2
      }
    }
  ],
  "meshes": [
    {
      "name": "Object_0",
      "primitives": [
        {
          "attributes": {
            "NORMAL": 1,
            "POSITION": 0,
            "TANGENT": 2,
            "TEXCOORD_0": 3
          },
          "indices": 4,
          "material": 0,
          "mode": 4
        }
      ]
    },
    {
      "name": "Object_1",
      "primitives": [
        {
          "attributes": {
            "NORMAL": 6,
            "POSITION": 5,
            "TANGENT": 7,
            "TEXCOORD_0": 8
          },
          "indices": 9,
          "material": 1,
          "mode": 4
        }
      ]
    }
  ],
  "nodes": [
    {
      "children": [
        1
      ],
      "matrix": [
        1.0,
        0.0,
        0.0,
        0.0,
        0.0,
        2.220446049250313e-16,
        -1.0,
        0.0,
        0.0,
        1.0,
        2.220446049250313e-16,
        0.0,
        0.0,
        0.0,
        0.0,
        1.0
      ],
      "name": "Sketchfab_model"
    },
    {
      "children": [
        2,
        3
      ],
      "name": "SK_Patrick_Balloon.obj.cleaner.materialmerger.gles"
    },
    {
      "mesh": 0,
      "name": "Object_2"
    },
    {
      "mesh": 1,
      "name": "Object_3"
    }
  ],
  "samplers": [
    {
      "magFilter": 9729,
      "minFilter": 9987,
      "wrapS": 10497,
      "wrapT": 10497
    }
  ],
  "scene": 0,
  "scenes": [
    {
      "name": "Sketchfab_Scene",
      "nodes": [
        0
      ]
    }
  ],
  "textures": [
    {
      "sampler": 0,
      "source": 0
    },
    {
      "sampler": 0,
      "source": 1
    },
    {
      "sampler": 0,
      "source": 2
    },
    {
      "sampler": 0,
      "source": 3
    },
    {
      "sampler": 0,
      "source": 4
    }
  ]
}
